<mxfile host="app.diagrams.net" agent="Mozilla/5.0 (Windows NT 10.0; Win64; x64; rv:136.0) Gecko/20100101 Firefox/136.0" version="26.1.0">
  <diagram id="C5RBs43oDa-KdzZeNtuy" name="Page-1">
    <mxGraphModel dx="1309" dy="1066" grid="1" gridSize="10" guides="1" tooltips="1" connect="1" arrows="1" fold="1" page="1" pageScale="1" pageWidth="827" pageHeight="1169" math="0" shadow="0">
      <root>
        <mxCell id="WIyWlLk6GJQsqaUBKTNV-0" />
        <mxCell id="WIyWlLk6GJQsqaUBKTNV-1" parent="WIyWlLk6GJQsqaUBKTNV-0" />
        <mxCell id="w1JXNroopTsTKmSldW14-3" value="Backend (Spring Boot)" style="whiteSpace=wrap;strokeWidth=2;" vertex="1" parent="WIyWlLk6GJQsqaUBKTNV-1">
          <mxGeometry x="1949" y="790" width="842" height="610" as="geometry" />
        </mxCell>
        <mxCell id="w1JXNroopTsTKmSldW14-107" value="Frontend (Angular SPA)" style="whiteSpace=wrap;strokeWidth=2;" vertex="1" parent="WIyWlLk6GJQsqaUBKTNV-1">
          <mxGeometry x="1960" y="830" width="820" height="460" as="geometry" />
        </mxCell>
        <mxCell id="w1JXNroopTsTKmSldW14-9" value="Client (Browser)" style="whiteSpace=wrap;strokeWidth=2;" vertex="1" parent="WIyWlLk6GJQsqaUBKTNV-1">
          <mxGeometry x="1948" y="20" width="842" height="730" as="geometry" />
        </mxCell>
        <mxCell id="w1JXNroopTsTKmSldW14-6" value="Frontend (Angular SPA)" style="whiteSpace=wrap;strokeWidth=2;" vertex="1" parent="WIyWlLk6GJQsqaUBKTNV-1">
          <mxGeometry x="1960" y="170" width="820" height="460" as="geometry" />
        </mxCell>
        <mxCell id="w1JXNroopTsTKmSldW14-93" value="" style="whiteSpace=wrap;strokeWidth=2;" vertex="1" parent="WIyWlLk6GJQsqaUBKTNV-1">
          <mxGeometry x="1984" y="470" width="770" height="100" as="geometry" />
        </mxCell>
        <mxCell id="w1JXNroopTsTKmSldW14-1" value="Database" style="whiteSpace=wrap;strokeWidth=2;" vertex="1" parent="WIyWlLk6GJQsqaUBKTNV-1">
          <mxGeometry x="1950" y="1579" width="840" height="258" as="geometry" />
        </mxCell>
        <mxCell id="w1JXNroopTsTKmSldW14-2" value="Main Tables" style="whiteSpace=wrap;strokeWidth=2;" vertex="1" parent="WIyWlLk6GJQsqaUBKTNV-1">
          <mxGeometry x="1970" y="1702" width="800" height="78" as="geometry" />
        </mxCell>
        <mxCell id="w1JXNroopTsTKmSldW14-7" value="" style="whiteSpace=wrap;strokeWidth=2;" vertex="1" parent="WIyWlLk6GJQsqaUBKTNV-1">
          <mxGeometry x="1984" y="310" width="770" height="100" as="geometry" />
        </mxCell>
        <mxCell id="w1JXNroopTsTKmSldW14-10" value="Interface Utilisateur" style="whiteSpace=wrap;strokeWidth=2;" vertex="1" parent="WIyWlLk6GJQsqaUBKTNV-1">
          <mxGeometry x="1980" y="50" width="206" height="54" as="geometry" />
        </mxCell>
        <mxCell id="w1JXNroopTsTKmSldW14-95" style="edgeStyle=orthogonalEdgeStyle;rounded=0;orthogonalLoop=1;jettySize=auto;html=1;exitX=0.5;exitY=1;exitDx=0;exitDy=0;entryX=0.5;entryY=0;entryDx=0;entryDy=0;" edge="1" parent="WIyWlLk6GJQsqaUBKTNV-1" source="w1JXNroopTsTKmSldW14-11" target="w1JXNroopTsTKmSldW14-15">
          <mxGeometry relative="1" as="geometry" />
        </mxCell>
        <mxCell id="w1JXNroopTsTKmSldW14-11" value="Angular Framework" style="whiteSpace=wrap;strokeWidth=2;" vertex="1" parent="WIyWlLk6GJQsqaUBKTNV-1">
          <mxGeometry x="2392" y="50" width="207" height="54" as="geometry" />
        </mxCell>
        <mxCell id="w1JXNroopTsTKmSldW14-12" value="REST API Calls" style="whiteSpace=wrap;strokeWidth=2;" vertex="1" parent="WIyWlLk6GJQsqaUBKTNV-1">
          <mxGeometry x="2288.5" y="650" width="161" height="54" as="geometry" />
        </mxCell>
        <mxCell id="w1JXNroopTsTKmSldW14-94" style="edgeStyle=orthogonalEdgeStyle;rounded=0;orthogonalLoop=1;jettySize=auto;html=1;exitX=0.5;exitY=1;exitDx=0;exitDy=0;entryX=0.5;entryY=0;entryDx=0;entryDy=0;" edge="1" parent="WIyWlLk6GJQsqaUBKTNV-1" source="w1JXNroopTsTKmSldW14-15" target="w1JXNroopTsTKmSldW14-24">
          <mxGeometry relative="1" as="geometry" />
        </mxCell>
        <mxCell id="w1JXNroopTsTKmSldW14-96" style="edgeStyle=orthogonalEdgeStyle;rounded=0;orthogonalLoop=1;jettySize=auto;html=1;exitX=0.5;exitY=1;exitDx=0;exitDy=0;" edge="1" parent="WIyWlLk6GJQsqaUBKTNV-1" source="w1JXNroopTsTKmSldW14-15" target="w1JXNroopTsTKmSldW14-23">
          <mxGeometry relative="1" as="geometry" />
        </mxCell>
        <mxCell id="w1JXNroopTsTKmSldW14-97" style="edgeStyle=orthogonalEdgeStyle;rounded=0;orthogonalLoop=1;jettySize=auto;html=1;exitX=0.5;exitY=1;exitDx=0;exitDy=0;" edge="1" parent="WIyWlLk6GJQsqaUBKTNV-1" source="w1JXNroopTsTKmSldW14-15" target="w1JXNroopTsTKmSldW14-21">
          <mxGeometry relative="1" as="geometry" />
        </mxCell>
        <mxCell id="w1JXNroopTsTKmSldW14-98" style="edgeStyle=orthogonalEdgeStyle;rounded=0;orthogonalLoop=1;jettySize=auto;html=1;exitX=0.5;exitY=1;exitDx=0;exitDy=0;entryX=0.5;entryY=0;entryDx=0;entryDy=0;" edge="1" parent="WIyWlLk6GJQsqaUBKTNV-1" source="w1JXNroopTsTKmSldW14-15" target="w1JXNroopTsTKmSldW14-20">
          <mxGeometry relative="1" as="geometry" />
        </mxCell>
        <mxCell id="w1JXNroopTsTKmSldW14-15" value="Routing" style="whiteSpace=wrap;strokeWidth=2;" vertex="1" parent="WIyWlLk6GJQsqaUBKTNV-1">
          <mxGeometry x="2299" y="190" width="114" height="54" as="geometry" />
        </mxCell>
        <mxCell id="w1JXNroopTsTKmSldW14-106" style="edgeStyle=orthogonalEdgeStyle;rounded=0;orthogonalLoop=1;jettySize=auto;html=1;exitX=0.5;exitY=1;exitDx=0;exitDy=0;" edge="1" parent="WIyWlLk6GJQsqaUBKTNV-1" source="w1JXNroopTsTKmSldW14-16" target="w1JXNroopTsTKmSldW14-12">
          <mxGeometry relative="1" as="geometry" />
        </mxCell>
        <mxCell id="w1JXNroopTsTKmSldW14-16" value="Authentication Service" style="whiteSpace=wrap;strokeWidth=2;" vertex="1" parent="WIyWlLk6GJQsqaUBKTNV-1">
          <mxGeometry x="2575" y="493" width="164" height="54" as="geometry" />
        </mxCell>
        <mxCell id="w1JXNroopTsTKmSldW14-103" style="edgeStyle=orthogonalEdgeStyle;rounded=0;orthogonalLoop=1;jettySize=auto;html=1;exitX=0.5;exitY=1;exitDx=0;exitDy=0;" edge="1" parent="WIyWlLk6GJQsqaUBKTNV-1" source="w1JXNroopTsTKmSldW14-19" target="w1JXNroopTsTKmSldW14-12">
          <mxGeometry relative="1" as="geometry" />
        </mxCell>
        <mxCell id="w1JXNroopTsTKmSldW14-19" value="Invoice Service" style="whiteSpace=wrap;strokeWidth=2;" vertex="1" parent="WIyWlLk6GJQsqaUBKTNV-1">
          <mxGeometry x="2007" y="493" width="164" height="54" as="geometry" />
        </mxCell>
        <mxCell id="w1JXNroopTsTKmSldW14-102" style="edgeStyle=orthogonalEdgeStyle;rounded=0;orthogonalLoop=1;jettySize=auto;html=1;exitX=0.5;exitY=1;exitDx=0;exitDy=0;" edge="1" parent="WIyWlLk6GJQsqaUBKTNV-1" source="w1JXNroopTsTKmSldW14-20" target="w1JXNroopTsTKmSldW14-16">
          <mxGeometry relative="1" as="geometry" />
        </mxCell>
        <mxCell id="w1JXNroopTsTKmSldW14-20" value="Login Page" style="whiteSpace=wrap;strokeWidth=2;" vertex="1" parent="WIyWlLk6GJQsqaUBKTNV-1">
          <mxGeometry x="2575" y="335" width="164" height="54" as="geometry" />
        </mxCell>
        <mxCell id="w1JXNroopTsTKmSldW14-101" style="edgeStyle=orthogonalEdgeStyle;rounded=0;orthogonalLoop=1;jettySize=auto;html=1;exitX=0.5;exitY=1;exitDx=0;exitDy=0;entryX=0.5;entryY=0;entryDx=0;entryDy=0;" edge="1" parent="WIyWlLk6GJQsqaUBKTNV-1" source="w1JXNroopTsTKmSldW14-21" target="w1JXNroopTsTKmSldW14-17">
          <mxGeometry relative="1" as="geometry" />
        </mxCell>
        <mxCell id="w1JXNroopTsTKmSldW14-21" value="Account Board" style="whiteSpace=wrap;strokeWidth=2;" vertex="1" parent="WIyWlLk6GJQsqaUBKTNV-1">
          <mxGeometry x="2392" y="335" width="164" height="54" as="geometry" />
        </mxCell>
        <mxCell id="w1JXNroopTsTKmSldW14-100" style="edgeStyle=orthogonalEdgeStyle;rounded=0;orthogonalLoop=1;jettySize=auto;html=1;exitX=0.5;exitY=1;exitDx=0;exitDy=0;entryX=0.5;entryY=0;entryDx=0;entryDy=0;" edge="1" parent="WIyWlLk6GJQsqaUBKTNV-1" source="w1JXNroopTsTKmSldW14-23" target="w1JXNroopTsTKmSldW14-18">
          <mxGeometry relative="1" as="geometry" />
        </mxCell>
        <mxCell id="w1JXNroopTsTKmSldW14-23" value="Delivery Board" style="whiteSpace=wrap;strokeWidth=2;" vertex="1" parent="WIyWlLk6GJQsqaUBKTNV-1">
          <mxGeometry x="2199" y="335" width="164" height="54" as="geometry" />
        </mxCell>
        <mxCell id="w1JXNroopTsTKmSldW14-99" style="edgeStyle=orthogonalEdgeStyle;rounded=0;orthogonalLoop=1;jettySize=auto;html=1;exitX=0.5;exitY=1;exitDx=0;exitDy=0;entryX=0.5;entryY=0;entryDx=0;entryDy=0;" edge="1" parent="WIyWlLk6GJQsqaUBKTNV-1" source="w1JXNroopTsTKmSldW14-24" target="w1JXNroopTsTKmSldW14-19">
          <mxGeometry relative="1" as="geometry" />
        </mxCell>
        <mxCell id="w1JXNroopTsTKmSldW14-24" value="Invoice Board" style="whiteSpace=wrap;strokeWidth=2;" vertex="1" parent="WIyWlLk6GJQsqaUBKTNV-1">
          <mxGeometry x="2007" y="335" width="164" height="54" as="geometry" />
        </mxCell>
        <mxCell id="w1JXNroopTsTKmSldW14-34" value="Repositories" style="whiteSpace=wrap;strokeWidth=2;" vertex="1" parent="WIyWlLk6GJQsqaUBKTNV-1">
          <mxGeometry x="2296.5" y="1310" width="147" height="54" as="geometry" />
        </mxCell>
        <mxCell id="w1JXNroopTsTKmSldW14-35" value="Database" style="whiteSpace=wrap;strokeWidth=2;" vertex="1" parent="WIyWlLk6GJQsqaUBKTNV-1">
          <mxGeometry x="2287" y="1450" width="164" height="54" as="geometry" />
        </mxCell>
        <mxCell id="w1JXNroopTsTKmSldW14-131" style="edgeStyle=orthogonalEdgeStyle;rounded=0;orthogonalLoop=1;jettySize=auto;html=1;exitX=0.5;exitY=1;exitDx=0;exitDy=0;entryX=0.5;entryY=0;entryDx=0;entryDy=0;" edge="1" parent="WIyWlLk6GJQsqaUBKTNV-1" source="w1JXNroopTsTKmSldW14-36" target="w1JXNroopTsTKmSldW14-39">
          <mxGeometry relative="1" as="geometry" />
        </mxCell>
        <mxCell id="w1JXNroopTsTKmSldW14-132" style="edgeStyle=orthogonalEdgeStyle;rounded=0;orthogonalLoop=1;jettySize=auto;html=1;exitX=0.5;exitY=1;exitDx=0;exitDy=0;" edge="1" parent="WIyWlLk6GJQsqaUBKTNV-1" source="w1JXNroopTsTKmSldW14-36" target="w1JXNroopTsTKmSldW14-38">
          <mxGeometry relative="1" as="geometry" />
        </mxCell>
        <mxCell id="w1JXNroopTsTKmSldW14-133" style="edgeStyle=orthogonalEdgeStyle;rounded=0;orthogonalLoop=1;jettySize=auto;html=1;exitX=0.5;exitY=1;exitDx=0;exitDy=0;entryX=0.5;entryY=0;entryDx=0;entryDy=0;" edge="1" parent="WIyWlLk6GJQsqaUBKTNV-1" source="w1JXNroopTsTKmSldW14-36" target="w1JXNroopTsTKmSldW14-37">
          <mxGeometry relative="1" as="geometry" />
        </mxCell>
        <mxCell id="w1JXNroopTsTKmSldW14-36" value="Tables/Collections" style="whiteSpace=wrap;strokeWidth=2;" vertex="1" parent="WIyWlLk6GJQsqaUBKTNV-1">
          <mxGeometry x="2273" y="1604" width="192" height="54" as="geometry" />
        </mxCell>
        <mxCell id="w1JXNroopTsTKmSldW14-37" value="Users" style="whiteSpace=wrap;strokeWidth=2;rounded=1;" vertex="1" parent="WIyWlLk6GJQsqaUBKTNV-1">
          <mxGeometry x="2567" y="1715" width="180" height="54" as="geometry" />
        </mxCell>
        <mxCell id="w1JXNroopTsTKmSldW14-38" value="Deliveries" style="whiteSpace=wrap;strokeWidth=2;rounded=1;" vertex="1" parent="WIyWlLk6GJQsqaUBKTNV-1">
          <mxGeometry x="2279" y="1715" width="180" height="54" as="geometry" />
        </mxCell>
        <mxCell id="w1JXNroopTsTKmSldW14-39" value="Invoices" style="whiteSpace=wrap;strokeWidth=2;rounded=1;" vertex="1" parent="WIyWlLk6GJQsqaUBKTNV-1">
          <mxGeometry x="1993" y="1715" width="180" height="54" as="geometry" />
        </mxCell>
        <mxCell id="w1JXNroopTsTKmSldW14-45" value="HTML/CSS/JS" style="curved=1;startArrow=none;endArrow=block;exitX=1;exitY=0.5;entryX=0;entryY=0.5;rounded=0;exitDx=0;exitDy=0;entryDx=0;entryDy=0;" edge="1" parent="WIyWlLk6GJQsqaUBKTNV-1" source="w1JXNroopTsTKmSldW14-10" target="w1JXNroopTsTKmSldW14-11">
          <mxGeometry relative="1" as="geometry">
            <Array as="points" />
          </mxGeometry>
        </mxCell>
        <mxCell id="w1JXNroopTsTKmSldW14-68" value="" style="curved=1;startArrow=none;endArrow=block;exitX=0.5;exitY=1;entryX=0.5;entryY=0;rounded=0;entryDx=0;entryDy=0;" edge="1" parent="WIyWlLk6GJQsqaUBKTNV-1" source="w1JXNroopTsTKmSldW14-12" target="w1JXNroopTsTKmSldW14-114">
          <mxGeometry relative="1" as="geometry">
            <Array as="points" />
          </mxGeometry>
        </mxCell>
        <mxCell id="w1JXNroopTsTKmSldW14-81" value="JPA/Hibernate" style="curved=1;startArrow=none;endArrow=block;exitX=0.5;exitY=1;entryX=0.5;entryY=0;rounded=0;" edge="1" parent="WIyWlLk6GJQsqaUBKTNV-1" source="w1JXNroopTsTKmSldW14-34" target="w1JXNroopTsTKmSldW14-35">
          <mxGeometry relative="1" as="geometry">
            <Array as="points" />
          </mxGeometry>
        </mxCell>
        <mxCell id="w1JXNroopTsTKmSldW14-82" value="" style="curved=1;startArrow=none;endArrow=block;exitX=0.5;exitY=1;entryX=0.5;entryY=0;rounded=0;" edge="1" parent="WIyWlLk6GJQsqaUBKTNV-1" source="w1JXNroopTsTKmSldW14-35" target="w1JXNroopTsTKmSldW14-36">
          <mxGeometry relative="1" as="geometry">
            <Array as="points" />
          </mxGeometry>
        </mxCell>
        <mxCell id="w1JXNroopTsTKmSldW14-104" style="edgeStyle=orthogonalEdgeStyle;rounded=0;orthogonalLoop=1;jettySize=auto;html=1;exitX=0.5;exitY=1;exitDx=0;exitDy=0;" edge="1" parent="WIyWlLk6GJQsqaUBKTNV-1" source="w1JXNroopTsTKmSldW14-18" target="w1JXNroopTsTKmSldW14-12">
          <mxGeometry relative="1" as="geometry" />
        </mxCell>
        <mxCell id="w1JXNroopTsTKmSldW14-18" value="Delivery Service" style="whiteSpace=wrap;strokeWidth=2;" vertex="1" parent="WIyWlLk6GJQsqaUBKTNV-1">
          <mxGeometry x="2199" y="493" width="164" height="54" as="geometry" />
        </mxCell>
        <mxCell id="w1JXNroopTsTKmSldW14-105" style="edgeStyle=orthogonalEdgeStyle;rounded=0;orthogonalLoop=1;jettySize=auto;html=1;exitX=0.5;exitY=1;exitDx=0;exitDy=0;" edge="1" parent="WIyWlLk6GJQsqaUBKTNV-1" source="w1JXNroopTsTKmSldW14-17" target="w1JXNroopTsTKmSldW14-12">
          <mxGeometry relative="1" as="geometry" />
        </mxCell>
        <mxCell id="w1JXNroopTsTKmSldW14-17" value="User Service" style="whiteSpace=wrap;strokeWidth=2;" vertex="1" parent="WIyWlLk6GJQsqaUBKTNV-1">
          <mxGeometry x="2392" y="493" width="164" height="54" as="geometry" />
        </mxCell>
        <mxCell id="w1JXNroopTsTKmSldW14-108" value="" style="whiteSpace=wrap;strokeWidth=2;" vertex="1" parent="WIyWlLk6GJQsqaUBKTNV-1">
          <mxGeometry x="1984" y="1130" width="770" height="100" as="geometry" />
        </mxCell>
        <mxCell id="w1JXNroopTsTKmSldW14-109" value="" style="whiteSpace=wrap;strokeWidth=2;" vertex="1" parent="WIyWlLk6GJQsqaUBKTNV-1">
          <mxGeometry x="1984" y="970" width="770" height="100" as="geometry" />
        </mxCell>
        <mxCell id="w1JXNroopTsTKmSldW14-110" style="edgeStyle=orthogonalEdgeStyle;rounded=0;orthogonalLoop=1;jettySize=auto;html=1;exitX=0.5;exitY=1;exitDx=0;exitDy=0;entryX=0.5;entryY=0;entryDx=0;entryDy=0;" edge="1" parent="WIyWlLk6GJQsqaUBKTNV-1" source="w1JXNroopTsTKmSldW14-114" target="w1JXNroopTsTKmSldW14-126">
          <mxGeometry relative="1" as="geometry" />
        </mxCell>
        <mxCell id="w1JXNroopTsTKmSldW14-111" style="edgeStyle=orthogonalEdgeStyle;rounded=0;orthogonalLoop=1;jettySize=auto;html=1;exitX=0.5;exitY=1;exitDx=0;exitDy=0;" edge="1" parent="WIyWlLk6GJQsqaUBKTNV-1" source="w1JXNroopTsTKmSldW14-114" target="w1JXNroopTsTKmSldW14-124">
          <mxGeometry relative="1" as="geometry" />
        </mxCell>
        <mxCell id="w1JXNroopTsTKmSldW14-112" style="edgeStyle=orthogonalEdgeStyle;rounded=0;orthogonalLoop=1;jettySize=auto;html=1;exitX=0.5;exitY=1;exitDx=0;exitDy=0;" edge="1" parent="WIyWlLk6GJQsqaUBKTNV-1" source="w1JXNroopTsTKmSldW14-114" target="w1JXNroopTsTKmSldW14-122">
          <mxGeometry relative="1" as="geometry" />
        </mxCell>
        <mxCell id="w1JXNroopTsTKmSldW14-113" style="edgeStyle=orthogonalEdgeStyle;rounded=0;orthogonalLoop=1;jettySize=auto;html=1;exitX=0.5;exitY=1;exitDx=0;exitDy=0;entryX=0.5;entryY=0;entryDx=0;entryDy=0;" edge="1" parent="WIyWlLk6GJQsqaUBKTNV-1" source="w1JXNroopTsTKmSldW14-114" target="w1JXNroopTsTKmSldW14-120">
          <mxGeometry relative="1" as="geometry" />
        </mxCell>
        <mxCell id="w1JXNroopTsTKmSldW14-114" value="REST Controllers" style="whiteSpace=wrap;strokeWidth=2;" vertex="1" parent="WIyWlLk6GJQsqaUBKTNV-1">
          <mxGeometry x="2290" y="850" width="160" height="54" as="geometry" />
        </mxCell>
        <mxCell id="w1JXNroopTsTKmSldW14-115" style="edgeStyle=orthogonalEdgeStyle;rounded=0;orthogonalLoop=1;jettySize=auto;html=1;exitX=0.5;exitY=1;exitDx=0;exitDy=0;" edge="1" parent="WIyWlLk6GJQsqaUBKTNV-1" source="w1JXNroopTsTKmSldW14-116">
          <mxGeometry relative="1" as="geometry">
            <mxPoint x="2369" y="1310" as="targetPoint" />
          </mxGeometry>
        </mxCell>
        <mxCell id="w1JXNroopTsTKmSldW14-116" value="Authentication Service" style="whiteSpace=wrap;strokeWidth=2;" vertex="1" parent="WIyWlLk6GJQsqaUBKTNV-1">
          <mxGeometry x="2575" y="1153" width="164" height="54" as="geometry" />
        </mxCell>
        <mxCell id="w1JXNroopTsTKmSldW14-117" style="edgeStyle=orthogonalEdgeStyle;rounded=0;orthogonalLoop=1;jettySize=auto;html=1;exitX=0.5;exitY=1;exitDx=0;exitDy=0;" edge="1" parent="WIyWlLk6GJQsqaUBKTNV-1" source="w1JXNroopTsTKmSldW14-118">
          <mxGeometry relative="1" as="geometry">
            <mxPoint x="2369" y="1310" as="targetPoint" />
          </mxGeometry>
        </mxCell>
        <mxCell id="w1JXNroopTsTKmSldW14-118" value="Invoice Service" style="whiteSpace=wrap;strokeWidth=2;" vertex="1" parent="WIyWlLk6GJQsqaUBKTNV-1">
          <mxGeometry x="2007" y="1153" width="164" height="54" as="geometry" />
        </mxCell>
        <mxCell id="w1JXNroopTsTKmSldW14-119" style="edgeStyle=orthogonalEdgeStyle;rounded=0;orthogonalLoop=1;jettySize=auto;html=1;exitX=0.5;exitY=1;exitDx=0;exitDy=0;" edge="1" parent="WIyWlLk6GJQsqaUBKTNV-1" source="w1JXNroopTsTKmSldW14-120" target="w1JXNroopTsTKmSldW14-116">
          <mxGeometry relative="1" as="geometry" />
        </mxCell>
        <mxCell id="w1JXNroopTsTKmSldW14-120" value="Login API" style="whiteSpace=wrap;strokeWidth=2;" vertex="1" parent="WIyWlLk6GJQsqaUBKTNV-1">
          <mxGeometry x="2575" y="995" width="164" height="54" as="geometry" />
        </mxCell>
        <mxCell id="w1JXNroopTsTKmSldW14-121" style="edgeStyle=orthogonalEdgeStyle;rounded=0;orthogonalLoop=1;jettySize=auto;html=1;exitX=0.5;exitY=1;exitDx=0;exitDy=0;entryX=0.5;entryY=0;entryDx=0;entryDy=0;" edge="1" parent="WIyWlLk6GJQsqaUBKTNV-1" source="w1JXNroopTsTKmSldW14-122" target="w1JXNroopTsTKmSldW14-130">
          <mxGeometry relative="1" as="geometry" />
        </mxCell>
        <mxCell id="w1JXNroopTsTKmSldW14-122" value="Account API" style="whiteSpace=wrap;strokeWidth=2;" vertex="1" parent="WIyWlLk6GJQsqaUBKTNV-1">
          <mxGeometry x="2392" y="995" width="164" height="54" as="geometry" />
        </mxCell>
        <mxCell id="w1JXNroopTsTKmSldW14-123" style="edgeStyle=orthogonalEdgeStyle;rounded=0;orthogonalLoop=1;jettySize=auto;html=1;exitX=0.5;exitY=1;exitDx=0;exitDy=0;entryX=0.5;entryY=0;entryDx=0;entryDy=0;" edge="1" parent="WIyWlLk6GJQsqaUBKTNV-1" source="w1JXNroopTsTKmSldW14-124" target="w1JXNroopTsTKmSldW14-128">
          <mxGeometry relative="1" as="geometry" />
        </mxCell>
        <mxCell id="w1JXNroopTsTKmSldW14-124" value="Delivery API" style="whiteSpace=wrap;strokeWidth=2;" vertex="1" parent="WIyWlLk6GJQsqaUBKTNV-1">
          <mxGeometry x="2199" y="995" width="164" height="54" as="geometry" />
        </mxCell>
        <mxCell id="w1JXNroopTsTKmSldW14-125" style="edgeStyle=orthogonalEdgeStyle;rounded=0;orthogonalLoop=1;jettySize=auto;html=1;exitX=0.5;exitY=1;exitDx=0;exitDy=0;entryX=0.5;entryY=0;entryDx=0;entryDy=0;" edge="1" parent="WIyWlLk6GJQsqaUBKTNV-1" source="w1JXNroopTsTKmSldW14-126" target="w1JXNroopTsTKmSldW14-118">
          <mxGeometry relative="1" as="geometry" />
        </mxCell>
        <mxCell id="w1JXNroopTsTKmSldW14-126" value="Invoice API" style="whiteSpace=wrap;strokeWidth=2;" vertex="1" parent="WIyWlLk6GJQsqaUBKTNV-1">
          <mxGeometry x="2007" y="995" width="164" height="54" as="geometry" />
        </mxCell>
        <mxCell id="w1JXNroopTsTKmSldW14-127" style="edgeStyle=orthogonalEdgeStyle;rounded=0;orthogonalLoop=1;jettySize=auto;html=1;exitX=0.5;exitY=1;exitDx=0;exitDy=0;" edge="1" parent="WIyWlLk6GJQsqaUBKTNV-1" source="w1JXNroopTsTKmSldW14-128">
          <mxGeometry relative="1" as="geometry">
            <mxPoint x="2369" y="1310" as="targetPoint" />
          </mxGeometry>
        </mxCell>
        <mxCell id="w1JXNroopTsTKmSldW14-128" value="Delivery Service" style="whiteSpace=wrap;strokeWidth=2;" vertex="1" parent="WIyWlLk6GJQsqaUBKTNV-1">
          <mxGeometry x="2199" y="1153" width="164" height="54" as="geometry" />
        </mxCell>
        <mxCell id="w1JXNroopTsTKmSldW14-129" style="edgeStyle=orthogonalEdgeStyle;rounded=0;orthogonalLoop=1;jettySize=auto;html=1;exitX=0.5;exitY=1;exitDx=0;exitDy=0;" edge="1" parent="WIyWlLk6GJQsqaUBKTNV-1" source="w1JXNroopTsTKmSldW14-130">
          <mxGeometry relative="1" as="geometry">
            <mxPoint x="2369" y="1310" as="targetPoint" />
          </mxGeometry>
        </mxCell>
        <mxCell id="w1JXNroopTsTKmSldW14-130" value="User Service" style="whiteSpace=wrap;strokeWidth=2;" vertex="1" parent="WIyWlLk6GJQsqaUBKTNV-1">
          <mxGeometry x="2392" y="1153" width="164" height="54" as="geometry" />
        </mxCell>
      </root>
    </mxGraphModel>
  </diagram>
</mxfile>
